<?xml version="1.0" encoding="UTF-8"?> <svg xmlns="http://www.w3.org/2000/svg" width="349.957" height="98.183" viewBox="0 0 349.957 98.183"><defs><style> .cls-1 { fill: #222b2b; } .cls-2 { fill: #15aab5; } .cls-3 { fill: #fd6e60; } </style></defs><g id="Grupo_2079" data-name="Grupo 2079" transform="translate(-619.703 659.164)"><g id="Grupo_1919" data-name="Grupo 1919" transform="translate(786.409 -659.164)"><path id="Trazado_16" data-name="Trazado 16" class="cls-1" d="M1272.937,487.843a9.009,9.009,0,0,1-3.269-.56,6.463,6.463,0,0,1-2.451-1.647,7.348,7.348,0,0,1-1.541-2.65,11.048,11.048,0,0,1-.537-3.6,9.726,9.726,0,0,1,.619-3.6,7.779,7.779,0,0,1,1.692-2.649,7.108,7.108,0,0,1,2.522-1.647,8.533,8.533,0,0,1,3.105-.561,10.025,10.025,0,0,1,1.821.152,12.828,12.828,0,0,1,1.425.339,5.805,5.805,0,0,1,1,.4c.265.14.451.242.561.3l-.864,2.4a6.866,6.866,0,0,0-1.6-.665,7.736,7.736,0,0,0-2.253-.315,5.266,5.266,0,0,0-1.962.362,4.247,4.247,0,0,0-1.576,1.085,5.057,5.057,0,0,0-1.039,1.821,7.886,7.886,0,0,0-.374,2.546,8.959,8.959,0,0,0,.292,2.358,5.216,5.216,0,0,0,.9,1.856,4.078,4.078,0,0,0,1.541,1.215,5.309,5.309,0,0,0,2.242.432,8.506,8.506,0,0,0,2.544-.316,10.159,10.159,0,0,0,1.518-.6l.794,2.4a3.986,3.986,0,0,1-.759.373,10.644,10.644,0,0,1-1.133.362,11.356,11.356,0,0,1-1.47.28A13.8,13.8,0,0,1,1272.937,487.843Z" transform="translate(-1265.138 -468.627)"></path><path id="Trazado_17" data-name="Trazado 17" class="cls-1" d="M1305.834,486.981a7.683,7.683,0,0,1-2.09-.28,3.218,3.218,0,0,1-1.32-.736,2.6,2.6,0,0,1-.689-1.191,6.071,6.071,0,0,1-.2-1.622V469.1l2.826-.467v13.986a3.864,3.864,0,0,0,.081.864,1.383,1.383,0,0,0,.292.6,1.3,1.3,0,0,0,.572.373,4.438,4.438,0,0,0,.922.2Z" transform="translate(-1276.881 -467.882)"></path><path id="Trazado_18" data-name="Trazado 18" class="cls-1" d="M1330.218,469.184l-3.805,3.689-1.4-1.261,3.432-4.087Zm-1.938,17.208h-2.825V474.181h2.825Z" transform="translate(-1284.455 -467.526)"></path><path id="Trazado_19" data-name="Trazado 19" class="cls-1" d="M1348.933,477.625a18.905,18.905,0,0,1,2.125-.444,18.391,18.391,0,0,1,2.9-.21,6.662,6.662,0,0,1,2.5.408,3.887,3.887,0,0,1,1.6,1.145,4.357,4.357,0,0,1,.841,1.774,9.884,9.884,0,0,1,.246,2.277v6.864h-2.826v-6.421a9.291,9.291,0,0,0-.128-1.669,2.956,2.956,0,0,0-.42-1.121,1.683,1.683,0,0,0-.794-.63,3.338,3.338,0,0,0-1.226-.2,9.406,9.406,0,0,0-1.121.07q-.583.069-.864.117v9.853h-2.825Z" transform="translate(-1292.173 -470.573)"></path><path id="Trazado_20" data-name="Trazado 20" class="cls-1" d="M1385.882,471.242a1.62,1.62,0,0,1-.514,1.261,1.744,1.744,0,0,1-1.214.467,1.771,1.771,0,0,1-1.237-.467,1.621,1.621,0,0,1-.515-1.261,1.65,1.65,0,0,1,.515-1.284,1.774,1.774,0,0,1,1.237-.467,1.747,1.747,0,0,1,1.214.467A1.649,1.649,0,0,1,1385.882,471.242Zm-.3,15.784h-2.825V474.815h2.825Z" transform="translate(-1302.971 -468.16)"></path><path id="Trazado_21" data-name="Trazado 21" class="cls-1" d="M1405.187,483.323a7.49,7.49,0,0,1,.42-2.533,6.023,6.023,0,0,1,1.2-2.043,5.506,5.506,0,0,1,1.9-1.354,6.241,6.241,0,0,1,2.523-.49,8.548,8.548,0,0,1,3.269.631l-.608,2.311a6.469,6.469,0,0,0-1.109-.35,6,6,0,0,0-1.319-.14,3.09,3.09,0,0,0-2.521,1.04,4.455,4.455,0,0,0-.864,2.93,4.618,4.618,0,0,0,.818,2.884,3.266,3.266,0,0,0,2.755,1.062,7.3,7.3,0,0,0,1.425-.14,6.749,6.749,0,0,0,1.214-.35l.4,2.335a5.908,5.908,0,0,1-1.412.421,10.09,10.09,0,0,1-1.95.186,7.083,7.083,0,0,1-2.721-.479,5.141,5.141,0,0,1-1.914-1.331,5.5,5.5,0,0,1-1.133-2.031A8.421,8.421,0,0,1,1405.187,483.323Z" transform="translate(-1310.322 -470.551)"></path><path id="Trazado_22" data-name="Trazado 22" class="cls-1" d="M1439.894,476.9a6.928,6.928,0,0,1,2.358.35,3.771,3.771,0,0,1,1.529.981,3.68,3.68,0,0,1,.818,1.529,7.517,7.517,0,0,1,.245,1.973v7.4q-.654.14-1.974.339a20.163,20.163,0,0,1-2.976.2,8.97,8.97,0,0,1-2.009-.21,4.221,4.221,0,0,1-1.552-.677,3.191,3.191,0,0,1-1-1.214,4.206,4.206,0,0,1-.362-1.844,3.566,3.566,0,0,1,.408-1.775,3.357,3.357,0,0,1,1.11-1.179,4.8,4.8,0,0,1,1.623-.654,9.144,9.144,0,0,1,1.926-.2,8.621,8.621,0,0,1,.981.059,9.225,9.225,0,0,1,1.1.2v-.467a3.709,3.709,0,0,0-.117-.934,1.945,1.945,0,0,0-.409-.782,1.925,1.925,0,0,0-.771-.526,3.351,3.351,0,0,0-1.2-.186,10.646,10.646,0,0,0-1.8.14,7.893,7.893,0,0,0-1.331.326l-.35-2.288a11.3,11.3,0,0,1,1.564-.374A12.329,12.329,0,0,1,1439.894,476.9Zm.233,10.53a10.525,10.525,0,0,0,1.985-.139v-3.129a5.53,5.53,0,0,0-.677-.14,6.409,6.409,0,0,0-.981-.07,6.609,6.609,0,0,0-.945.07,2.978,2.978,0,0,0-.865.257,1.566,1.566,0,0,0-.618.526,1.466,1.466,0,0,0-.234.852,1.5,1.5,0,0,0,.63,1.389A3.254,3.254,0,0,0,1440.127,487.432Z" transform="translate(-1319.93 -470.551)"></path></g><g id="Grupo_1920" data-name="Grupo 1920" transform="translate(724.219 -641.884)"><path id="Trazado_23" data-name="Trazado 23" class="cls-1" d="M1220.4,536.676a30.158,30.158,0,0,1-1.856,11,22.749,22.749,0,0,1-5.043,7.951,20.82,20.82,0,0,1-7.461,4.8,25.606,25.606,0,0,1-9.105,1.611,25.9,25.9,0,0,1-9.142-1.611,20.722,20.722,0,0,1-7.494-4.8,23.136,23.136,0,0,1-5.079-7.951,32.822,32.822,0,0,1,0-21.96,23.07,23.07,0,0,1,5.149-7.95,21.264,21.264,0,0,1,7.53-4.833,26.138,26.138,0,0,1,18.072,0,20.6,20.6,0,0,1,7.46,4.833,23.607,23.607,0,0,1,5.078,7.95A29.391,29.391,0,0,1,1220.4,536.676Zm-37.895,0a25.049,25.049,0,0,0,.981,7.249,15.868,15.868,0,0,0,2.837,5.534,12.859,12.859,0,0,0,4.518,3.537,13.906,13.906,0,0,0,6.025,1.261,13.733,13.733,0,0,0,5.953-1.261,12.87,12.87,0,0,0,4.519-3.537,15.937,15.937,0,0,0,2.837-5.534,27.307,27.307,0,0,0,0-14.5,15.946,15.946,0,0,0-2.837-5.534,12.877,12.877,0,0,0-4.519-3.537,13.733,13.733,0,0,0-5.953-1.261,13.906,13.906,0,0,0-6.025,1.261,12.689,12.689,0,0,0-4.518,3.572,16.3,16.3,0,0,0-2.837,5.533A24.7,24.7,0,0,0,1182.5,536.676Zm25.357-38.666-11.418,11.068-4.2-3.783,10.3-12.258Z" transform="translate(-1173.328 -493.037)"></path><path id="Trazado_24" data-name="Trazado 24" class="cls-1" d="M1310.142,557.246a25.943,25.943,0,0,1-1.086,7.705,18,18,0,0,1-3.118,6.024,13.829,13.829,0,0,1-5.078,3.922,16.335,16.335,0,0,1-6.9,1.4,17.026,17.026,0,0,1-4.763-.631,17.744,17.744,0,0,1-3.572-1.4v14.219h-8.475v-48.4q2.59-.7,6.374-1.331a48.5,48.5,0,0,1,7.985-.631,21.387,21.387,0,0,1,7.774,1.331,16.23,16.23,0,0,1,5.849,3.817,16.826,16.826,0,0,1,3.713,6.024A23,23,0,0,1,1310.142,557.246Zm-8.686.14q0-5.673-2.556-8.825t-8.231-3.152q-1.192,0-2.486.1a13.718,13.718,0,0,0-2.557.455v20.944a13.024,13.024,0,0,0,2.977,1.436,11.616,11.616,0,0,0,3.958.666q4.622,0,6.76-3.153A14.889,14.889,0,0,0,1301.456,557.385Z" transform="translate(-1206.824 -507.583)"></path><path id="Trazado_25" data-name="Trazado 25" class="cls-1" d="M1370.417,537.917a20.721,20.721,0,0,1,7.075,1.051,11.3,11.3,0,0,1,4.588,2.941,11.034,11.034,0,0,1,2.452,4.589,22.452,22.452,0,0,1,.736,5.919v22.2q-1.962.421-5.919,1.016a60.55,60.55,0,0,1-8.931.6,26.784,26.784,0,0,1-6.024-.631,12.641,12.641,0,0,1-4.658-2.032,9.565,9.565,0,0,1-3.012-3.642,12.62,12.62,0,0,1-1.086-5.533,10.691,10.691,0,0,1,1.226-5.323,10.061,10.061,0,0,1,3.328-3.537,14.39,14.39,0,0,1,4.868-1.962,27.443,27.443,0,0,1,5.779-.6,26.151,26.151,0,0,1,2.943.176,27.511,27.511,0,0,1,3.292.6v-1.4a11,11,0,0,0-.35-2.8,5.835,5.835,0,0,0-1.226-2.346,5.756,5.756,0,0,0-2.311-1.576,10.018,10.018,0,0,0-3.608-.56,32.062,32.062,0,0,0-5.394.42,23.741,23.741,0,0,0-3.992.981l-1.051-6.865a33.548,33.548,0,0,1,4.693-1.121A36.827,36.827,0,0,1,1370.417,537.917Zm.7,31.59a31.518,31.518,0,0,0,5.954-.42V559.7a16.41,16.41,0,0,0-2.031-.42,18.935,18.935,0,0,0-2.942-.21,19.547,19.547,0,0,0-2.837.21,8.837,8.837,0,0,0-2.592.77,4.714,4.714,0,0,0-1.856,1.576,4.4,4.4,0,0,0-.7,2.557q0,3.013,1.891,4.167A9.761,9.761,0,0,0,1371.118,569.507Z" transform="translate(-1232.146 -507.517)"></path><path id="Trazado_26" data-name="Trazado 26" class="cls-1" d="M1448.047,568.154a23.016,23.016,0,0,1-6.269-.84,9.625,9.625,0,0,1-3.958-2.207,7.8,7.8,0,0,1-2.067-3.572,18.129,18.129,0,0,1-.6-4.868V514.5l8.475-1.4v41.958a11.555,11.555,0,0,0,.246,2.592,4.145,4.145,0,0,0,.875,1.786,3.922,3.922,0,0,0,1.717,1.121,13.466,13.466,0,0,0,2.766.6Z" transform="translate(-1257.802 -499.509)"></path><path id="Trazado_27" data-name="Trazado 27" class="cls-1" d="M1518.924,557.109a23.663,23.663,0,0,1-1.26,7.915,17.538,17.538,0,0,1-3.572,6.094,16.062,16.062,0,0,1-5.569,3.923,17.992,17.992,0,0,1-7.18,1.4,17.742,17.742,0,0,1-7.145-1.4,16.131,16.131,0,0,1-5.533-3.923,17.947,17.947,0,0,1-3.607-6.094,23.05,23.05,0,0,1-1.3-7.915,22.765,22.765,0,0,1,1.3-7.881,17.691,17.691,0,0,1,3.642-6.058,16.071,16.071,0,0,1,5.569-3.887,17.929,17.929,0,0,1,7.074-1.366,18.192,18.192,0,0,1,7.11,1.366,15.658,15.658,0,0,1,5.568,3.887,18.038,18.038,0,0,1,3.608,6.058A22.808,22.808,0,0,1,1518.924,557.109Zm-8.685,0q0-5.463-2.347-8.651a8.324,8.324,0,0,0-13.1,0q-2.347,3.188-2.346,8.651,0,5.534,2.346,8.756a8.267,8.267,0,0,0,13.1,0Q1510.237,562.644,1510.239,557.109Z" transform="translate(-1273.483 -507.517)"></path></g><path id="Trazado_28" data-name="Trazado 28" class="cls-2" d="M1072.477,555.291l-.408,0a36.99,36.99,0,0,1-13.825-2.837,37.85,37.85,0,0,1-20.4-20.4,36.975,36.975,0,0,1-2.837-13.825,36.166,36.166,0,0,1,2.542-13.79,35.515,35.515,0,0,1,7.949-12.094l11.812-11.812a35.52,35.52,0,0,1,12.094-7.949,36.161,36.161,0,0,1,13.79-2.543,37,37,0,0,1,13.826,2.837h0a37.852,37.852,0,0,1,20.4,20.4,36.984,36.984,0,0,1,2.837,13.825,36.154,36.154,0,0,1-2.542,13.79,35.494,35.494,0,0,1-7.949,12.093L1097.953,544.8a35.513,35.513,0,0,1-12.094,7.949A36.143,36.143,0,0,1,1072.477,555.291Zm10.313-79.926a30.842,30.842,0,0,0-11.421,2.17,30.218,30.218,0,0,0-10.291,6.764l-11.812,11.812A30.224,30.224,0,0,0,1042.5,506.4a30.888,30.888,0,0,0-2.168,11.77,31.68,31.68,0,0,0,2.432,11.843,32.528,32.528,0,0,0,17.518,17.517,31.7,31.7,0,0,0,11.844,2.432,30.882,30.882,0,0,0,11.77-2.168,30.206,30.206,0,0,0,10.29-6.764L1106,529.22a30.207,30.207,0,0,0,6.764-10.291,30.866,30.866,0,0,0,2.168-11.769,31.71,31.71,0,0,0-2.431-11.844,32.534,32.534,0,0,0-17.517-17.517h0a31.691,31.691,0,0,0-11.844-2.432Z" transform="translate(-404.483 -1127.501)"></path><path id="Trazado_29" data-name="Trazado 29" class="cls-2" d="M1074.078,555.463a2.655,2.655,0,0,1-1.882-.78l-24.7-24.7a21.38,21.38,0,0,1,30.23-30.23l11.976,11.975h0a21.208,21.208,0,0,1-.277,29.954c-4.968,4.968-8.6,8.389-11.009,10.653-1.128,1.061-1.943,1.828-2.459,2.344A2.657,2.657,0,0,1,1074.078,555.463Zm-11.067-56.447h-.172A16.335,16.335,0,0,0,1046.76,515.1a15.37,15.37,0,0,0,4.505,11.126l22.853,22.852.652-.614c2.382-2.242,5.982-5.63,10.893-10.541a15.877,15.877,0,0,0,.277-22.422l-11.976-11.975A15.362,15.362,0,0,0,1063.011,499.017Z" transform="translate(-406.559 -1135.135)"></path><path id="Trazado_30" data-name="Trazado 30" class="cls-3" d="M1101.956,504.24a35.845,35.845,0,0,0-8.013-12.179l-11.586-11.587a35.845,35.845,0,0,0-12.162-8.006h0l-.018-.007a36.46,36.46,0,0,0-13.518-2.575h0l-.364,0a37.182,37.182,0,0,0-13.912,2.841,37.986,37.986,0,0,0-20.508,20.509,37.169,37.169,0,0,0-2.841,13.912,36.441,36.441,0,0,0,2.573,13.882,35.842,35.842,0,0,0,8.013,12.18l11.586,11.587a35.831,35.831,0,0,0,12.18,8.013,36.432,36.432,0,0,0,13.511,2.575l.371,0a37.189,37.189,0,0,0,13.911-2.842,37.986,37.986,0,0,0,20.509-20.509,37.173,37.173,0,0,0,2.841-13.912A36.442,36.442,0,0,0,1101.956,504.24Zm2.3,13.879h0a36.224,36.224,0,0,0-1.668-11.286A36.224,36.224,0,0,1,1104.256,518.12Zm-5.324-.052c0,.254-.008.508-.017.762.008-.254.014-.508.017-.762Zm-9.615,22.1a31.838,31.838,0,0,1-10.382,6.947,31.357,31.357,0,0,1-11.725,2.4h-.286a30.666,30.666,0,0,1-11.37-2.16,30,30,0,0,1-10.2-6.709L1033.77,529.06a30,30,0,0,1-6.709-10.2,30.6,30.6,0,0,1-2.159-11.657,31.342,31.342,0,0,1,2.4-11.725,32.117,32.117,0,0,1,17.328-17.328,31.349,31.349,0,0,1,11.725-2.4h.314a30.594,30.594,0,0,1,11.344,2.16,30.012,30.012,0,0,1,10.2,6.709l1.107,1.107c-.265-.009-.53-.02-.8-.02v0a20.96,20.96,0,0,0-14.933,6.14l-11.994,11.995a20.945,20.945,0,0,0-6.149,15.177,21.791,21.791,0,0,0,6.446,15.233l13.077,13.077c.06.06.121.116.182.167a2.944,2.944,0,0,0,4.066-.256,2.885,2.885,0,0,0,.236-.293c.4-.411,1.557-1.5,2.675-2.559,2.447-2.315,6.146-5.812,10.174-9.839l11.994-11.994a20.81,20.81,0,0,0,4.332-6.324c.029.607.043,1.216.037,1.828a31.348,31.348,0,0,1-2.4,11.725A31.823,31.823,0,0,1,1089.317,540.172Zm-64.671-33.713v0Zm.152-2.218c.005-.053.011-.106.017-.159C1024.81,504.135,1024.8,504.188,1024.8,504.241Zm1.374-6.487c.1-.318.209-.635.323-.951q.257-.717.551-1.426.535-1.294,1.178-2.527-.641,1.234-1.178,2.527-.294.708-.551,1.426C1026.382,497.119,1026.276,497.437,1026.173,497.754Zm72.644,17.28Zm-8.689,3.363-11.994,11.994c-3.955,3.955-7.619,7.419-10.042,9.711l-.014.013q-.562.531-1.032.977l-11-11a15.936,15.936,0,0,1-4.723-11.137,15.105,15.105,0,0,1,4.426-10.948l11.994-11.995a15.111,15.111,0,0,1,10.769-4.419,16.118,16.118,0,0,1,16.039,15.854A15.107,15.107,0,0,1,1090.128,518.4Zm-2.2-24.045q-.444-.317-.9-.6.459.282.9.6Zm-20.38,1.47-4.8,4.8,4.8-4.8a15.232,15.232,0,0,1,5.55-3.541A15.232,15.232,0,0,0,1067.553,495.823Zm6.042-3.713q.505-.166,1.018-.3Q1074.1,491.943,1073.595,492.11Zm-22.542,26.85c0,.307.018.614.039.918-.021-.3-.035-.611-.039-.918Zm.521,3.9c-.078-.3-.144-.6-.205-.9C1051.43,522.258,1051.5,522.56,1051.574,522.859Zm16.465,17.668-.421.4Zm24.645-24.977a15.149,15.149,0,0,0,.711-1.351,15.149,15.149,0,0,1-.711,1.351c-.207.349-.431.688-.666,1.019C1092.254,516.237,1092.478,515.9,1092.684,515.55Zm1.517-3.5q-.216.736-.5,1.444Q1093.986,512.79,1094.2,512.054Zm.481-2.26q.1-.77.134-1.557-.029.787-.134,1.557t-.284,1.518Q1094.576,510.564,1094.682,509.794ZM1079.6,486.015c-.149-.007-.3-.01-.446-.015.148,0,.3.005.444.013Zm-1.492-.02c.137,0,.274-.009.412-.009l.1,0C1078.447,485.986,1078.275,485.991,1078.1,485.995ZM1067.5,489.1c.145-.09.29-.184.437-.27C1067.785,488.919,1067.641,489.014,1067.5,489.1Zm.9-.527c.146-.081.292-.165.44-.242C1068.687,488.412,1068.541,488.5,1068.395,488.577Zm.915-.475c.149-.073.3-.149.447-.217C1069.606,487.953,1069.459,488.029,1069.31,488.1Zm.935-.428c.151-.064.3-.131.451-.192C1070.544,487.542,1070.395,487.609,1070.244,487.674Zm.948-.378c.153-.056.3-.116.458-.169C1071.5,487.18,1071.345,487.24,1071.192,487.3Zm.96-.329c.156-.049.31-.1.467-.146C1072.463,486.866,1072.308,486.918,1072.153,486.967Zm.973-.281c.159-.042.317-.086.476-.124C1073.442,486.6,1073.284,486.643,1073.125,486.685Zm.982-.233c.162-.035.323-.071.486-.1C1074.43,486.381,1074.268,486.418,1074.107,486.452Zm.99-.186c.165-.027.33-.056.495-.079C1075.426,486.211,1075.262,486.24,1075.1,486.267Zm1-.138c.168-.02.335-.041.5-.056C1076.429,486.088,1076.262,486.109,1076.094,486.129Zm1-.091c.171-.011.341-.024.511-.032C1077.438,486.014,1077.268,486.026,1077.1,486.038Zm-13.191,5.884c.213-.209.427-.416.647-.614C1064.334,491.506,1064.119,491.712,1063.906,491.922Zm.979-.9c.158-.136.314-.275.474-.405C1065.2,490.747,1065.043,490.886,1064.886,491.022Zm.862-.705c.148-.115.295-.233.446-.343C1066.043,490.084,1065.9,490.2,1065.748,490.317Zm.862-.632c.147-.1.292-.208.442-.305C1066.9,489.477,1066.757,489.583,1066.61,489.685Zm-14.828,14.355a20.611,20.611,0,0,0-4.913,7.814,20.611,20.611,0,0,1,4.913-7.814l3.427-3.427ZM1045.726,518c0-.073.008-.144.012-.216C1045.734,517.858,1045.728,517.929,1045.726,518Zm.518-3.956c.094-.408.194-.813.312-1.213C1046.438,513.233,1046.337,513.638,1046.244,514.046Zm5.835,20.019,13.077,13.077c.053.052.108.1.165.151a2.648,2.648,0,0,0,.293.213,2.648,2.648,0,0,1-.293-.213c-.058-.048-.113-.1-.165-.151l-13.077-13.077a22.018,22.018,0,0,1-3.255-4.141A22.018,22.018,0,0,0,1052.079,534.065Zm14.964,13.859a2.672,2.672,0,0,0,1.422-.413,2.661,2.661,0,0,1-2.1.325A2.668,2.668,0,0,0,1067.043,547.924Zm4.891-3.729c2.449-2.315,6.15-5.815,10.169-9.833l11.995-11.994a20.548,20.548,0,0,0,4.489-6.744h0a20.548,20.548,0,0,1-4.489,6.744L1082.1,534.362c-4.019,4.019-7.719,7.518-10.169,9.833-1.111,1.051-2.171,2.053-2.616,2.5C1069.764,546.248,1070.823,545.246,1071.934,544.195Zm26.976-27.646c-.011-.294-.028-.587-.047-.88h0C1098.883,515.961,1098.9,516.255,1098.911,516.549Zm-22.226-33.706a30.269,30.269,0,0,0-3.735-2.741,30.269,30.269,0,0,1,3.735,2.741c.29.25.576.507.857.769C1077.26,483.35,1076.975,483.093,1076.684,482.843Zm-8.242-10.732c.168.058.335.118.5.179C1068.777,472.229,1068.61,472.168,1068.442,472.11Zm.821.292q.325.121.649.249Q1069.588,472.524,1069.263,472.4Zm-24.74,5.5q-1.471.609-2.865,1.353,1.394-.745,2.865-1.353.831-.343,1.675-.637Q1045.354,477.559,1044.523,477.9Zm2.638-.957q.2-.063.4-.123Q1047.359,476.882,1047.161,476.944Zm-7.292,3.345q.419-.26.846-.507Q1040.288,480.029,1039.869,480.289Zm-11.157,11.658q.3-.537.624-1.062Q1029.013,491.41,1028.712,491.947Zm-2.173,26.314c-.108-.293-.211-.589-.31-.885C1026.328,517.672,1026.43,517.968,1026.538,518.261Zm-.847-2.663c-.083-.307-.162-.616-.236-.925C1025.528,514.982,1025.608,515.291,1025.691,515.6Zm2.158,15.293q-.482-.566-.939-1.15Q1027.368,530.325,1027.849,530.891Zm1,1.122c-.283-.3-.561-.613-.831-.926C1028.287,531.4,1028.565,531.708,1028.848,532.013Zm4.729-2.76q-1.062-1.062-2.005-2.212.944,1.148,2.005,2.212l4.966,4.966Zm-2.919-3.379q.358.48.734.946Q1031.014,526.353,1030.658,525.873Zm24.794,21.736.089.034-.089-.034q-.726-.289-1.433-.612Q1054.726,547.32,1055.452,547.609Zm11.219,2.176-.347,0Zm-.749-.014-.348-.012Zm-.749-.033c-.115-.006-.23-.012-.345-.02C1064.943,549.726,1065.058,549.732,1065.174,549.739Zm-.745-.049-.345-.028Zm-.74-.067-.346-.037Zm-.738-.085c-.115-.015-.231-.028-.346-.045C1062.721,549.509,1062.837,549.522,1062.952,549.537Zm-.736-.1c-.115-.017-.229-.034-.344-.053C1061.986,549.4,1062.1,549.418,1062.216,549.435Zm-.73-.119-.344-.061Zm-.728-.137-.343-.069Zm-.724-.154c-.114-.026-.228-.051-.341-.078C1059.806,548.974,1059.92,549,1060.034,549.025Zm-.721-.172c-.112-.029-.225-.056-.338-.086C1059.087,548.8,1059.2,548.824,1059.312,548.853Zm-.723-.191c-.11-.03-.219-.06-.329-.091C1058.37,548.6,1058.48,548.631,1058.59,548.661Zm-.717-.208c-.108-.033-.215-.064-.322-.1C1057.657,548.389,1057.765,548.42,1057.873,548.454Zm-.717-.228c-.1-.034-.207-.067-.31-.1C1056.949,548.159,1057.053,548.192,1057.156,548.226Zm-.73-.251c-.094-.034-.187-.066-.281-.1C1056.239,547.909,1056.333,547.941,1056.427,547.975Zm22.613-.6a32.056,32.056,0,0,0,4.91-2.546q.666-.423,1.311-.878-.645.455-1.311.878a32.056,32.056,0,0,1-4.91,2.546,31.643,31.643,0,0,1-9.6,2.317A31.667,31.667,0,0,0,1079.039,547.37Zm13.589-10.614a31.989,31.989,0,0,0,3.887-6.862q.394-.953.724-1.924-.331.97-.724,1.924a31.989,31.989,0,0,1-3.887,6.862c-.245.328-.5.652-.755.972C1092.131,537.408,1092.384,537.085,1092.629,536.757Zm-1.407,1.759-.148.172Zm6.539-12.219c-.1.358-.209.713-.323,1.068C1097.551,527.01,1097.66,526.654,1097.761,526.3ZM1080.036,478.7q-.638-.543-1.3-1.055Q1079.4,478.16,1080.036,478.7Zm-2.76-2.129a35.655,35.655,0,0,0-7.2-3.862h0A35.655,35.655,0,0,1,1077.277,476.576Zm-20.353-6.414c-.207,0-.413,0-.62,0h.354Zm11.164,1.832c-.157-.052-.314-.105-.472-.154C1067.773,471.888,1067.93,471.941,1068.088,471.993Zm-.845-.268c-.152-.046-.3-.093-.458-.138C1066.938,471.632,1067.09,471.679,1067.242,471.725Zm-.843-.245c-.15-.041-.3-.084-.452-.124C1066.1,471.4,1066.249,471.439,1066.4,471.48Zm-.843-.223c-.15-.038-.3-.077-.45-.113C1065.257,471.18,1065.407,471.219,1065.557,471.257Zm-.846-.2c-.151-.034-.3-.068-.451-.1C1064.411,470.987,1064.561,471.021,1064.711,471.055Zm-.852-.182c-.15-.03-.3-.06-.449-.089C1063.56,470.813,1063.709,470.843,1063.859,470.873Zm-.857-.161c-.148-.026-.3-.053-.446-.077C1062.705,470.659,1062.854,470.685,1063,470.712Zm-.858-.14c-.148-.022-.3-.045-.447-.066Q1061.921,470.537,1062.144,470.571Zm-.861-.12c-.149-.019-.3-.038-.447-.055C1060.985,470.414,1061.134,470.433,1061.283,470.452Zm-.866-.1c-.149-.015-.3-.031-.447-.043C1060.119,470.322,1060.268,470.337,1060.417,470.352Zm-.87-.079c-.148-.011-.3-.023-.445-.033C1059.251,470.25,1059.4,470.262,1059.547,470.273Zm-.872-.058c-.148-.008-.3-.016-.445-.022C1058.379,470.2,1058.527,470.208,1058.675,470.216Zm-.874-.037c-.148,0-.3-.009-.445-.012C1057.5,470.17,1057.653,470.174,1057.8,470.179Zm-15.315,2.8a37.282,37.282,0,0,1,5.055-1.682,37.471,37.471,0,0,0-13.052,6.211A37.287,37.287,0,0,1,1042.486,472.981Zm-21.079,22.241q-.554,1.57-.964,3.174Q1020.852,496.792,1021.408,495.222Zm-1.172,4.032q-.2.861-.354,1.73Q1020.039,500.116,1020.236,499.255Zm-.155,15.788a36.481,36.481,0,0,1-.776-7.891h0a36.481,36.481,0,0,0,.776,7.891,36.043,36.043,0,0,0,1.777,5.888,35.564,35.564,0,0,0,4.8,8.486,35.564,35.564,0,0,1-4.8-8.486A36.043,36.043,0,0,1,1020.082,515.043Zm33.4,37.515a35.527,35.527,0,0,1-9.375-5.5,35.527,35.527,0,0,0,9.375,5.5,36.045,36.045,0,0,0,8.259,2.195A36.045,36.045,0,0,1,1053.486,552.558Zm27.589-.266a37.058,37.058,0,0,1-8.515,2.388,37.332,37.332,0,0,0,16.928-7.235A37.3,37.3,0,0,1,1081.075,552.292Z" transform="translate(-399.328 -1127.451)"></path></g></svg> 